<mxfile>
  <diagram name="Multiple and Symmetric Multiprocessor" id="diagram1">
    <mxGraphModel>
      <root>
        <mxCell id="0" />
        <mxCell id="1" parent="0" />

        <!-- Multiple Processor Section -->
        <mxCell id="2" value="Multiple Processor" style="text;html=1;fontSize=18;fontStyle=1;" vertex="1" parent="1">
          <mxGeometry x="140" y="20" width="160" height="30" as="geometry" />
        </mxCell>

        <mxCell id="3" value="Master CPU" style="shape=process;fillColor=#e0e0e0;strokeColor=#000000;rounded=1;" vertex="1" parent="1">
          <mxGeometry x="180" y="70" width="80" height="40" as="geometry" />
        </mxCell>

        <mxCell id="4" value="Slave CPU" style="shape=process;fillColor=#e0e0e0;strokeColor=#000000;rounded=1;" vertex="1" parent="1">
          <mxGeometry x="100" y="150" width="80" height="40" as="geometry" />
        </mxCell>

        <mxCell id="5" value="Slave CPU" style="shape=process;fillColor=#e0e0e0;strokeColor=#000000;rounded=1;" vertex="1" parent="1">
          <mxGeometry x="260" y="150" width="80" height="40" as="geometry" />
        </mxCell>

        <mxCell id="6" style="edgeStyle=orthogonalEdgeStyle;rounded=0;orthogonalLoop=1;jettySize=auto;html=1;" edge="1" parent="1" source="3" target="4">
          <mxGeometry relative="1" as="geometry" />
        </mxCell>

        <mxCell id="7" style="edgeStyle=orthogonalEdgeStyle;rounded=0;orthogonalLoop=1;jettySize=auto;html=1;" edge="1" parent="1" source="3" target="5">
          <mxGeometry relative="1" as="geometry" />
        </mxCell>

        <mxCell id="8" value="Memory" style="shape=dataStorage;fillColor=#b3e5fc;strokeColor=#000000;rounded=1;" vertex="1" parent="1">
          <mxGeometry x="100" y="230" width="80" height="40" as="geometry" />
        </mxCell>

        <mxCell id="9" value="I/O" style="shape=dataStorage;fillColor=#b3e5fc;strokeColor=#000000;rounded=1;" vertex="1" parent="1">
          <mxGeometry x="260" y="230" width="80" height="40" as="geometry" />
        </mxCell>

        <mxCell id="10" style="edgeStyle=orthogonalEdgeStyle;rounded=0;orthogonalLoop=1;jettySize=auto;html=1;" edge="1" parent="1" source="4" target="8">
          <mxGeometry relative="1" as="geometry" />
        </mxCell>

        <mxCell id="11" style="edgeStyle=orthogonalEdgeStyle;rounded=0;orthogonalLoop=1;jettySize=auto;html=1;" edge="1" parent="1" source="5" target="9">
          <mxGeometry relative="1" as="geometry" />
        </mxCell>

        <!-- Symmetric Multiprocessor Section -->
        <mxCell id="12" value="Symmetric Multiprocessor" style="text;html=1;fontSize=18;fontStyle=1;" vertex="1" parent="1">
          <mxGeometry x="520" y="20" width="220" height="30" as="geometry" />
        </mxCell>

        <mxCell id="13" value="CPU" style="shape=process;fillColor=#e0e0e0;strokeColor=#000000;rounded=1;" vertex="1" parent="1">
          <mxGeometry x="520" y="70" width="60" height="40" as="geometry" />
        </mxCell>

        <mxCell id="14" value="CPU" style="shape=process;fillColor=#e0e0e0;strokeColor=#000000;rounded=1;" vertex="1" parent="1">
          <mxGeometry x="600" y="70" width="60" height="40" as="geometry" />
        </mxCell>

        <mxCell id="15" value="CPU" style="shape=process;fillColor=#e0e0e0;strokeColor=#000000;rounded=1;" vertex="1" parent="1">
          <mxGeometry x="680" y="70" width="60" height="40" as="geometry" />
        </mxCell>

        <mxCell id="16" value="Shared Bus" style="shape=rectangle;fillColor=#cfd8dc;strokeColor=#000000;rounded=1;" vertex="1" parent="1">
          <mxGeometry x="530" y="140" width="190" height="30" as="geometry" />
        </mxCell>

        <mxCell id="17" style="edgeStyle=orthogonalEdgeStyle;rounded=0;orthogonalLoop=1;jettySize=auto;html=1;" edge="1" parent="1" source="13" target="16">
          <mxGeometry relative="1" as="geometry" />
        </mxCell>
        <mxCell id="18" style="edgeStyle=orthogonalEdgeStyle;rounded=0;orthogonalLoop=1;jettySize=auto;html=1;" edge="1" parent="1" source="14" target="16">
          <mxGeometry relative="1" as="geometry" />
        </mxCell>
        <mxCell id="19" style="edgeStyle=orthogonalEdgeStyle;rounded=0;orthogonalLoop=1;jettySize=auto;html=1;" edge="1" parent="1" source="15" target="16">
          <mxGeometry relative="1" as="geometry" />
        </mxCell>

        <mxCell id="20" value="Memory" style="shape=dataStorage;fillColor=#b3e5fc;strokeColor=#000000;rounded=1;" vertex="1" parent="1">
          <mxGeometry x="570" y="200" width="60" height="40" as="geometry" />
        </mxCell>

        <mxCell id="21" value="I/O" style="shape=dataStorage;fillColor=#b3e5fc;strokeColor=#000000;rounded=1;" vertex="1" parent="1">
          <mxGeometry x="670" y="200" width="60" height="40" as="geometry" />
        </mxCell>

        <mxCell id="22" style="edgeStyle=orthogonalEdgeStyle;rounded=0;orthogonalLoop=1;jettySize=auto;html=1;" edge="1" parent="1" source="16" target="20">
          <mxGeometry relative="1" as="geometry" />
        </mxCell>

        <mxCell id="23" style="edgeStyle=orthogonalEdgeStyle;rounded=0;orthogonalLoop=1;jettySize=auto;html=1;" edge="1" parent="1" source="16" target="21">
          <mxGeometry relative="1" as="geometry" />
        </mxCell>

      </root>
    </mxGraphModel>
  </diagram>
</mxfile>
